# xmcd
#
# Track frame offsets:
#	150
#	14057
#	29002
#	42805
#	56627
#	76647
#	94532
#	107497
#	118606
#	131977
#	144498
#	156880
#	171979
#	182429
#	194309
#	209404
#	222427
#	236063
#	252576
#	270114
#	287048
#	298805
#	319368
#	332323
#
# Disc length: 4610 seconds
#
# Revision: 1
# Processed by: cddbd v1.5.1PL2 Copyright (c) Steve Scherf et al.
# Submitted via: audiograbber 1.83.01
#
DISCID=67120018
DTITLE=Varios - Chicanas y Norteñas de Hoy
DYEAR=2005
DGENRE=Country
TTITLE0=intro - Surfin
TTITLE1=Pesado - A chillar a Otra Parte
TTITLE2=Cardenales de Nuevo Leon - Belleza de Cantina
TTITLE3=Victor Garcia - Loco Por ti
TTITLE4=Mariano Barba - Aliado del Tiempo
TTITLE5=Temerarios - Por tu Maldito Amor
TTITLE6=Huracanes del Norte - Nada Contigo
TTITLE7=Don Cheto - Ya no Quiero Pistear
TTITLE8=EL Gigante de America - Por ti (Contra Viento y Marea)
TTITLE9=Intocable - Tiempo
TTITLE10=Vagon Chicano - Un Viernes sin Tu Amor
TTITLE11=Conjunto Primavera - Aun Sigues Siendo Mia
TTITLE12=Ramon Ayala - Ya no Llores
TTITLE13=Bobby Pulido - Vive
TTITLE14=Palomo - Yo te Propongo
TTITLE15=Intocable - Tiempo (R)
TTITLE16=Pesado - Sigues Aqui
TTITLE17=Intocable - Contra Viento y Marea
TTITLE18=Palomo - No me queda Mas
TTITLE19=Tigres del Norte - Socios
TTITLE20=Huracanes del Norte - El Arrepentido
TTITLE21=Ana Barbara - Lo Busqué
TTITLE22=Cardenales de Nuevo Leon - Quiero que Sepas
TTITLE23=Alegres de la Sierra - Asi Como Hoy
EXTD=Algunas chidas...Otras igual\n
EXTT0=
EXTT1=
EXTT2=
EXTT3=
EXTT4=
EXTT5=
EXTT6=
EXTT7=
EXTT8=
EXTT9=
EXTT10=
EXTT11=
EXTT12=
EXTT13=
EXTT14=
EXTT15=
EXTT16=
EXTT17=
EXTT18=
EXTT19=
EXTT20=
EXTT21=
EXTT22=
EXTT23=
PLAYORDER=
